<?xml version="1.0" encoding="UTF-8"?>
<svg width="360px" height="640px" viewBox="0 0 360 640" version="1.1" xmlns="http://www.w3.org/2000/svg" xmlns:xlink="http://www.w3.org/1999/xlink">
    <!-- Generator: Sketch 45.2 (43514) - http://www.bohemiancoding.com/sketch -->
    <title>Game Background</title>
    <desc>Created with Sketch.</desc>
    <defs>
        <radialGradient cx="50%" cy="53.1025896%" fx="50%" fy="53.1025896%" r="46.4901559%" gradientTransform="translate(0.500000,0.531026),scale(1.000000,0.562500),rotate(109.520150),translate(-0.500000,-0.531026)" id="radialGradient-1">
            <stop stop-color="#74E1EF" offset="0%"></stop>
            <stop stop-color="#3D9DD1" offset="100%"></stop>
        </radialGradient>
        <linearGradient x1="50%" y1="0%" x2="50%" y2="100%" id="linearGradient-2">
            <stop stop-color="#2B5A7A" offset="0%"></stop>
            <stop stop-color="#14265E" offset="100%"></stop>
            <stop stop-color="#12265B" offset="100%"></stop>
        </linearGradient>
        <rect id="path-3" x="0" y="0" width="360" height="640"></rect>
        <filter x="-1.9%" y="-0.8%" width="103.9%" height="102.2%" filterUnits="objectBoundingBox" id="filter-4">
            <feOffset dx="0" dy="2" in="SourceAlpha" result="shadowOffsetOuter1"></feOffset>
            <feGaussianBlur stdDeviation="2" in="shadowOffsetOuter1" result="shadowBlurOuter1"></feGaussianBlur>
            <feColorMatrix values="0 0 0 0 0   0 0 0 0 0   0 0 0 0 0  0 0 0 0.5 0" type="matrix" in="shadowBlurOuter1"></feColorMatrix>
        </filter>
    </defs>
    <g id="Gameplay" stroke="none" stroke-width="1" fill="none" fill-rule="evenodd">
        <g id="Wait-for-Users-to-Join">
            <g id="Game-Intermission" transform="translate(1.000000, 1.000000)">
                <g id="Rectangle">
                    <use fill="black" fill-opacity="1" filter="url(#filter-4)" xlink:href="#path-3"></use>
                    <use fill="url(#radialGradient-1)" fill-rule="evenodd" xlink:href="#path-3"></use>
                    <use fill-opacity="0.1" fill="url(#linearGradient-2)" fill-rule="evenodd" xlink:href="#path-3"></use>
                </g>
                <polygon id="Star" fill-opacity="0.1" fill="#FFFFFF" fill-rule="evenodd" transform="translate(67.500000, 62.500000) rotate(1482.000000) translate(-67.500000, -62.500000) " points="67.5 80.25 48.3969793 91.2201033 52.0453316 67.9850517 36.5906632 51.5298967 57.9484897 48.1399483 67.5 27 77.0515103 48.1399483 98.4093368 51.5298967 82.9546684 67.9850517 86.6030207 91.2201033"></polygon>
                <polygon id="Star" fill-opacity="0.1" fill="#FFFFFF" fill-rule="evenodd" transform="translate(180.500000, 180.500000) rotate(2082.000000) translate(-180.500000, -180.500000) " points="180.5 198.25 161.396979 209.220103 165.045332 185.985052 149.590663 169.529897 170.94849 166.139948 180.5 145 190.05151 166.139948 211.409337 169.529897 195.954668 185.985052 199.603021 209.220103"></polygon>
                <polygon id="Star" fill-opacity="0.1" fill="#FFFFFF" fill-rule="evenodd" transform="translate(67.500000, 320.500000) rotate(1230.000000) translate(-67.500000, -320.500000) " points="67.5 338.25 48.3969793 349.220103 52.0453316 325.985052 36.5906632 309.529897 57.9484897 306.139948 67.5 285 77.0515103 306.139948 98.4093368 309.529897 82.9546684 325.985052 86.6030207 349.220103"></polygon>
                <polygon id="Star" fill-opacity="0.1" fill="#FFFFFF" fill-rule="evenodd" transform="translate(296.500000, 355.500000) rotate(52.000000) translate(-296.500000, -355.500000) " points="296.5 373.25 277.396979 384.220103 281.045332 360.985052 265.590663 344.529897 286.94849 341.139948 296.5 320 306.05151 341.139948 327.409337 344.529897 311.954668 360.985052 315.603021 384.220103"></polygon>
                <polygon id="Star" fill-opacity="0.1" fill="#FFFFFF" fill-rule="evenodd" transform="translate(296.500000, 62.500000) rotate(1436.000000) translate(-296.500000, -62.500000) " points="296.5 80.25 277.396979 91.2201033 281.045332 67.9850517 265.590663 51.5298967 286.94849 48.1399483 296.5 27 306.05151 48.1399483 327.409337 51.5298967 311.954668 67.9850517 315.603021 91.2201033"></polygon>
                <polygon id="Star" fill-opacity="0.1" fill="#FFFFFF" fill-rule="evenodd" transform="translate(67.500000, 520.500000) rotate(729.000000) translate(-67.500000, -520.500000) " points="67.5 538.25 48.3969793 549.220103 52.0453316 525.985052 36.5906632 509.529897 57.9484897 506.139948 67.5 485 77.0515103 506.139948 98.4093368 509.529897 82.9546684 525.985052 86.6030207 549.220103"></polygon>
                <polygon id="Star" fill-opacity="0.1" fill="#FFFFFF" fill-rule="evenodd" transform="translate(180.500000, 355.500000) rotate(1234.000000) translate(-180.500000, -355.500000) " points="180.5 373.25 161.396979 384.220103 165.045332 360.985052 149.590663 344.529897 170.94849 341.139948 180.5 320 190.05151 341.139948 211.409337 344.529897 195.954668 360.985052 199.603021 384.220103"></polygon>
                <polygon id="Star" fill-opacity="0.1" fill="#FFFFFF" fill-rule="evenodd" transform="translate(296.500000, 520.500000) rotate(850.000000) translate(-296.500000, -520.500000) " points="296.5 538.25 277.396979 549.220103 281.045332 525.985052 265.590663 509.529897 286.94849 506.139948 296.5 485 306.05151 506.139948 327.409337 509.529897 311.954668 525.985052 315.603021 549.220103"></polygon>
                <polygon id="Star" fill-opacity="0.1" fill="#FFFFFF" fill-rule="evenodd" transform="translate(70.545602, 129.446933) rotate(1928.000000) translate(-70.545602, -129.446933) " points="70.5456021 142.25 59.0837896 148.893865 61.272801 134.821933 52 124.856135 64.8146959 122.803067 70.5456021 110 76.2765083 122.803067 89.0912041 124.856135 79.8184031 134.821933 82.0074145 148.893865"></polygon>
                <polygon id="Star-Copy" fill-opacity="0.1" fill="#FFFFFF" fill-rule="evenodd" transform="translate(161.545602, 62.446933) rotate(1682.000000) translate(-161.545602, -62.446933) " points="161.545602 75.25 150.08379 81.8938654 152.272801 67.8219327 143 57.8561346 155.814696 55.8030673 161.545602 43 167.276508 55.8030673 180.091204 57.8561346 170.818403 67.8219327 173.007414 81.8938654"></polygon>
                <polygon id="Star-Copy-2" fill-opacity="0.1" fill="#FFFFFF" fill-rule="evenodd" transform="translate(296.545602, 200.446933) rotate(45435.000000) translate(-296.545602, -200.446933) " points="296.545602 213.25 285.08379 219.893865 287.272801 205.821933 278 195.856135 290.814696 193.803067 296.545602 181 302.276508 193.803067 315.091204 195.856135 305.818403 205.821933 308.007414 219.893865"></polygon>
                <polygon id="Star-Copy-3" fill-opacity="0.1" fill="#FFFFFF" fill-rule="evenodd" transform="translate(142.545602, 265.446933) rotate(234.000000) translate(-142.545602, -265.446933) " points="142.545602 278.25 131.08379 284.893865 133.272801 270.821933 124 260.856135 136.814696 258.803067 142.545602 246 148.276508 258.803067 161.091204 260.856135 151.818403 270.821933 154.007414 284.893865"></polygon>
                <polygon id="Star-Copy-4" fill-opacity="0.1" fill="#FFFFFF" fill-rule="evenodd" transform="translate(277.545602, 419.446933) rotate(7094.000000) translate(-277.545602, -419.446933) " points="277.545602 432.25 266.08379 438.893865 268.272801 424.821933 259 414.856135 271.814696 412.803067 277.545602 400 283.276508 412.803067 296.091204 414.856135 286.818403 424.821933 289.007414 438.893865"></polygon>
                <polygon id="Star-Copy-5" fill-opacity="0.1" fill="#FFFFFF" fill-rule="evenodd" transform="translate(105.545602, 419.446933) rotate(830.000000) translate(-105.545602, -419.446933) " points="105.545602 432.25 94.0837896 438.893865 96.272801 424.821933 87 414.856135 99.8146959 412.803067 105.545602 400 111.276508 412.803067 124.091204 414.856135 114.818403 424.821933 117.007414 438.893865"></polygon>
                <polygon id="Star-Copy-6" fill-opacity="0.1" fill="#FFFFFF" fill-rule="evenodd" transform="translate(129.545602, 465.446933) rotate(938.000000) translate(-129.545602, -465.446933) " points="129.545602 478.25 118.08379 484.893865 120.272801 470.821933 111 460.856135 123.814696 458.803067 129.545602 446 135.276508 458.803067 148.091204 460.856135 138.818403 470.821933 141.007414 484.893865"></polygon>
                <polygon id="Star-Copy-7" fill-opacity="0.1" fill="#FFFFFF" fill-rule="evenodd" transform="translate(282.545602, 585.446933) rotate(1638.000000) translate(-282.545602, -585.446933) " points="282.545602 598.25 271.08379 604.893865 273.272801 590.821933 264 580.856135 276.814696 578.803067 282.545602 566 288.276508 578.803067 301.091204 580.856135 291.818403 590.821933 294.007414 604.893865"></polygon>
                <polygon id="Star-Copy-8" fill-opacity="0.1" fill="#FFFFFF" fill-rule="evenodd" transform="translate(161.545602, 566.446933) rotate(234.000000) translate(-161.545602, -566.446933) " points="161.545602 579.25 150.08379 585.893865 152.272801 571.821933 143 561.856135 155.814696 559.803067 161.545602 547 167.276508 559.803067 180.091204 561.856135 170.818403 571.821933 173.007414 585.893865"></polygon>
                <polygon id="Star-Copy-8" fill-opacity="0.1" fill="#FFFFFF" fill-rule="evenodd" transform="translate(122.870040, 124.446933) rotate(1820.000000) translate(-122.870040, -124.446933) " points="122.87004 132.641486 115.533952 136.893865 116.93502 127.88718 111 121.50861 119.201996 120.194553 122.87004 112 126.538084 120.194553 134.740079 121.50861 128.805059 127.88718 130.206127 136.893865"></polygon>
                <polygon id="Star-Copy-9" fill-opacity="0.1" fill="#FFFFFF" fill-rule="evenodd" transform="translate(233.870040, 98.446933) rotate(1728.000000) translate(-233.870040, -98.446933) " points="233.87004 106.641486 226.533952 110.893865 227.93502 101.88718 222 95.5086105 230.201996 94.1945528 233.87004 86 237.538084 94.1945528 245.740079 95.5086105 239.805059 101.88718 241.206127 110.893865"></polygon>
                <polygon id="Star-Copy-10" fill-opacity="0.1" fill="#FFFFFF" fill-rule="evenodd" transform="translate(270.870040, 263.446933) rotate(940.000000) translate(-270.870040, -263.446933) " points="270.87004 271.641486 263.533952 275.893865 264.93502 266.88718 259 260.50861 267.201996 259.194553 270.87004 251 274.538084 259.194553 282.740079 260.50861 276.805059 266.88718 278.206127 275.893865"></polygon>
                <polygon id="Star-Copy-11" fill-opacity="0.1" fill="#FFFFFF" fill-rule="evenodd" transform="translate(67.870040, 228.446933) rotate(1352.000000) translate(-67.870040, -228.446933) " points="67.8700396 236.641486 60.5339517 240.893865 61.9350198 231.88718 56 225.50861 64.2019956 224.194553 67.8700396 216 71.5380835 224.194553 79.7400791 225.50861 73.8050594 231.88718 75.2061275 240.893865"></polygon>
                <polygon id="Star-Copy-12" fill-opacity="0.1" fill="#FFFFFF" fill-rule="evenodd" transform="translate(134.870040, 200.446933) rotate(2123.000000) translate(-134.870040, -200.446933) " points="134.87004 208.641486 127.533952 212.893865 128.93502 203.88718 123 197.50861 131.201996 196.194553 134.87004 188 138.538084 196.194553 146.740079 197.50861 140.805059 203.88718 142.206127 212.893865"></polygon>
                <polygon id="Star-Copy-13" fill-opacity="0.1" fill="#FFFFFF" fill-rule="evenodd" points="55.8700396 386.641486 48.5339517 390.893865 49.9350198 381.88718 44 375.50861 52.2019956 374.194553 55.8700396 366 59.5380835 374.194553 67.7400791 375.50861 61.8050594 381.88718 63.2061275 390.893865"></polygon>
                <polygon id="Star-Copy-14" fill-opacity="0.1" fill="#FFFFFF" fill-rule="evenodd" transform="translate(46.870040, 472.446933) rotate(690.000000) translate(-46.870040, -472.446933) " points="46.8700396 480.641486 39.5339517 484.893865 40.9350198 475.88718 35 469.50861 43.2019956 468.194553 46.8700396 460 50.5380835 468.194553 58.7400791 469.50861 52.8050594 475.88718 54.2061275 484.893865"></polygon>
                <polygon id="Star-Copy-15" fill-opacity="0.1" fill="#FFFFFF" fill-rule="evenodd" transform="translate(212.870040, 451.446933) rotate(1123.000000) translate(-212.870040, -451.446933) " points="212.87004 459.641486 205.533952 463.893865 206.93502 454.88718 201 448.50861 209.201996 447.194553 212.87004 439 216.538084 447.194553 224.740079 448.50861 218.805059 454.88718 220.206127 463.893865"></polygon>
                <polygon id="Star-Copy-16" fill-opacity="0.1" fill="#FFFFFF" fill-rule="evenodd" transform="translate(233.870040, 543.446933) rotate(323.000000) translate(-233.870040, -543.446933) " points="233.87004 551.641486 226.533952 555.893865 227.93502 546.88718 222 540.50861 230.201996 539.194553 233.87004 531 237.538084 539.194553 245.740079 540.50861 239.805059 546.88718 241.206127 555.893865"></polygon>
                <polygon id="Star-Copy-17" fill-opacity="0.1" fill="#FFFFFF" fill-rule="evenodd" transform="translate(179.870040, 508.446933) rotate(1023.000000) translate(-179.870040, -508.446933) " points="179.87004 516.641486 172.533952 520.893865 173.93502 511.88718 168 505.50861 176.201996 504.194553 179.87004 496 183.538084 504.194553 191.740079 505.50861 185.805059 511.88718 187.206127 520.893865"></polygon>
                <polygon id="Star-Copy-18" fill-opacity="0.1" fill="#FFFFFF" fill-rule="evenodd" transform="translate(58.870040, 578.446933) rotate(589.000000) translate(-58.870040, -578.446933) " points="58.8700396 586.641486 51.5339517 590.893865 52.9350198 581.88718 47 575.50861 55.2019956 574.194553 58.8700396 566 62.5380835 574.194553 70.7400791 575.50861 64.8050594 581.88718 66.2061275 590.893865"></polygon>
                <polygon id="Star-Copy-19" fill-opacity="0.1" fill="#FFFFFF" fill-rule="evenodd" transform="translate(128.870040, 603.446933) rotate(459.000000) translate(-128.870040, -603.446933) " points="128.87004 611.641486 121.533952 615.893865 122.93502 606.88718 117 600.50861 125.201996 599.194553 128.87004 591 132.538084 599.194553 140.740079 600.50861 134.805059 606.88718 136.206127 615.893865"></polygon>
                <polygon id="Star-Copy-20" fill-opacity="0.1" fill="#FFFFFF" fill-rule="evenodd" transform="translate(212.870040, 265.446933) rotate(2234.000000) translate(-212.870040, -265.446933) " points="212.87004 273.641486 205.533952 277.893865 206.93502 268.88718 201 262.50861 209.201996 261.194553 212.87004 253 216.538084 261.194553 224.740079 262.50861 218.805059 268.88718 220.206127 277.893865"></polygon>
                <polygon id="Star-Copy-21" fill-opacity="0.1" fill="#FFFFFF" fill-rule="evenodd" transform="translate(233.870040, 30.446933) rotate(1582.000000) translate(-233.870040, -30.446933) " points="233.87004 38.6414855 226.533952 42.8938654 227.93502 33.8871803 222 27.5086105 230.201996 26.1945528 233.87004 18 237.538084 26.1945528 245.740079 27.5086105 239.805059 33.8871803 241.206127 42.8938654"></polygon>
                <polygon id="Star-Copy-22" fill-opacity="0.1" fill="#FFFFFF" fill-rule="evenodd" transform="translate(326.870040, 439.446933) rotate(7204.000000) translate(-326.870040, -439.446933) " points="326.87004 447.641486 319.533952 451.893865 320.93502 442.88718 315 436.50861 323.201996 435.194553 326.87004 427 330.538084 435.194553 338.740079 436.50861 332.805059 442.88718 334.206127 451.893865"></polygon>
            </g>
        </g>
    </g>
</svg>