<?xml version="1.0" encoding="UTF-8"?>
<svg width="31px" height="33px" viewBox="0 0 31 33" version="1.1" xmlns="http://www.w3.org/2000/svg" xmlns:xlink="http://www.w3.org/1999/xlink">
    <!-- Generator: Sketch 46.2 (44496) - http://www.bohemiancoding.com/sketch -->
    <title>Button Color</title>
    <desc>Created with Sketch.</desc>
    <defs>
        <linearGradient x1="50%" y1="0%" x2="50%" y2="100%" id="linearGradient-1">
            <stop stop-color="#F7E64C" offset="0%"></stop>
            <stop stop-color="#EFB542" offset="100%"></stop>
        </linearGradient>
        <path d="M9.08016633,6.24566503 C14.5209016,3.69614808 13.286857,3.21410083 18.4178846,5.33388575 C23.5489123,7.45367067 21.3851876,7.98758353 24.0558619,10.9064742 C26.7265362,13.8253648 26.5943703,13.2847777 26.9461243,15.611093 C27.5369376,19.5184199 23.0631567,21.0770256 23.5489123,23.3581723 C24.0346678,25.6393191 22.3995302,27.5445548 20.249041,27.8414958 C15.4978218,28.4975473 16.6660488,26.9060944 12.6366761,26.8884295 C8.60730341,26.8707646 7.87473897,27.7961323 5.74824584,23.8952524 C3.62175271,19.9943726 6.81477027,20.1605148 5.74824584,15.611093 C4.68172141,11.0616711 5.1254409,8.09884095 9.08016633,6.24566503 Z" id="path-2"></path>
        <filter x="-4.5%" y="-4.2%" width="118.2%" height="116.7%" filterUnits="objectBoundingBox" id="filter-3">
            <feOffset dx="1" dy="1" in="SourceAlpha" result="shadowOffsetOuter1"></feOffset>
            <feGaussianBlur stdDeviation="0.5" in="shadowOffsetOuter1" result="shadowBlurOuter1"></feGaussianBlur>
            <feColorMatrix values="0 0 0 0 0   0 0 0 0 0   0 0 0 0 0  0 0 0 0.1 0" type="matrix" in="shadowBlurOuter1"></feColorMatrix>
        </filter>
    </defs>
    <g id="Gameplay" stroke="none" stroke-width="1" fill="none" fill-rule="evenodd">
        <g id="Draw" transform="translate(-13.000000, -501.000000)">
            <g id="Button-Color" transform="translate(13.000000, 501.000000)">
                <path d="M5,0.000281376209 L25.9999689,0.000281376209 L25.9999689,0.000281376209 C28.7613926,0.000281376209 30.9999689,2.23885763 30.9999689,5.00028138 L30.9999689,5.5845841 L30.9999689,22.5318234 L30.9999689,27.9995516 C30.9999689,30.7609753 28.7613926,32.9995516 25.9999689,32.9995516 L5,32.9995516 C2.23857625,32.9995516 1.2263553e-15,30.7609753 8.8817842e-16,27.9995516 L0,5.00028138 L8.8817842e-16,5.00028138 C5.50001544e-16,2.23885763 2.23857625,0.000281376209 5,0.000281376209 L5,0.000281376209 Z M8.84875781,5.92701592 C4.71427214,7.8574075 4.06121406,11.674367 5.17621687,16.4133482 C6.29121969,21.1523293 2.95306496,21.1157494 5.17621687,25.1791659 C7.39936878,29.2425824 8.77127175,27.8237132 12.9837977,27.8421141 C17.1963237,27.860515 15.9749955,29.5182784 20.9421792,28.8348915 C23.190418,28.5255779 24.8998799,26.5409574 24.3920446,24.1647628 C23.8842093,21.7885683 28.5613438,20.1650207 27.9436754,16.0948885 C27.5759326,13.6716435 27.714106,14.234755 24.9220374,11.1942439 C22.1299689,8.15373284 24.9614018,7.24960528 19.5971456,5.04149599 C14.2328895,2.8333867 14.5367992,3.27126909 8.84875781,5.92701592 Z" id="Combined-Shape" fill="#3B6081" fill-rule="evenodd"></path>
                <path d="M5,-1.77635684e-15 L25,-1.77635684e-15 L25,-8.8817842e-16 C27.7614237,-3.84810456e-15 30,2.23857625 30,5 L30,21.8492512 L30,27 L30,27 C30,29.7614237 27.7614237,32 25,32 L5,32 C2.23857625,32 3.38176876e-16,29.7614237 0,27 L0,5 L0,5 C-3.38176876e-16,2.23857625 2.23857625,5.07243986e-16 5,0 L5,-1.77635684e-15 Z M9.08016633,6.24566503 C5.1254409,8.09884095 4.68172141,11.0616711 5.74824584,15.611093 C6.81477027,20.1605148 3.62175271,19.9943726 5.74824584,23.8952524 C7.87473897,27.7961323 8.60730341,26.8707646 12.6366761,26.8884295 C16.6660488,26.9060944 15.4978218,28.4975473 20.249041,27.8414958 C22.3995302,27.5445548 24.0346678,25.6393191 23.5489123,23.3581723 C23.0631567,21.0770256 27.5369376,19.5184199 26.9461243,15.611093 C26.5943703,13.2847777 26.7265362,13.8253648 24.0558619,10.9064742 C21.3851876,7.98758353 23.5489123,7.45367067 18.4178846,5.33388575 C13.286857,3.21410083 14.5209016,3.69614808 9.08016633,6.24566503 Z" id="Combined-Shape" fill="url(#linearGradient-1)" fill-rule="evenodd"></path>
                <g id="Path-11" fill-opacity="1" fill="black">
                    <use filter="url(#filter-3)" xlink:href="#path-2"></use>
                </g>
                <path d="M12.9020469,22.1148131 C13.7752377,21.4270544 15.6436001,22.2871441 16.6035742,22.1148131 C17.8018669,21.8996998 18.6160778,20.9531317 19.8197974,21.0835624 C21.9878386,21.3184834 22.3858754,22.3311299 22.1453063,23.1163789 C21.9047371,23.9016279 20.8327608,25.3288289 19.0917121,25.7732139 C17.3506633,26.2175988 16.6311402,25.6312793 14.4002606,25.3288289 C12.169381,25.0263785 11.2338219,23.4287712 12.9020469,22.1148131 Z" id="Path-12" fill-opacity="0.1" fill="#FFFFFF" fill-rule="evenodd"></path>
                <path d="M12.8377918,22.0730109 C13.6975735,21.3658245 15.5372446,22.25021 16.4824768,22.0730109 C17.6623681,21.8518212 18.4640756,20.8785145 19.6493103,21.0126296 C21.7840581,21.2541866 22.1759825,22.2954383 21.9391076,23.1028689 C21.7022327,23.9102996 20.6467182,25.3778161 18.9324057,25.834754 C17.2180933,26.2916919 16.5096196,25.6888101 14.3129983,25.3778161 C12.1163771,25.0668221 11.1951849,23.4240857 12.8377918,22.0730109 Z" id="Path-12" fill-opacity="0.1" fill="#FFFFFF" fill-rule="evenodd"></path>
            </g>
        </g>
    </g>
</svg>